<svg xmlns="http://www.w3.org/2000/svg" viewBox="0 0 497.53 537.58"><defs><style>.cls-1{font-size:21.51px;font-family:BFTaraW00-Light;font-weight:300;letter-spacing:0.25em;}.cls-1,.cls-6{fill:#ffc501;}.cls-2{font-size:110px;fill:#f7f7f7;font-family:Montserrat-Bold, Montserrat;font-weight:700;}.cls-3{letter-spacing:-0.01em;}.cls-4{letter-spacing:0em;}.cls-5{fill:#000;}</style></defs><g id="Layer_2" data-name="Layer 2"><text class="cls-1" transform="translate(4.01 532.36) scale(1.24 1)">LET’S CONQUER NEW HEIGHTS</text><text class="cls-2" transform="translate(0 467.92)">G<tspan class="cls-3" x="84.81" y="0">c</tspan><tspan class="cls-4" x="149.05" y="0">g</tspan><tspan class="cls-5" x="226.05" y="0"> </tspan><tspan class="cls-6" x="257.18" y="0">Hub</tspan></text></g><g id="Layer_1" data-name="Layer 1"><path class="cls-6" d="M509,505c-38.79-13.77-73.59-30.32-100-60.68-25.49-29.3-26.71-66.61-10.86-99.46,11.71-24.28,29.29-43.72,47-63.49,18.73-20.93,34-44.21,41.79-71.88,3.19-11.39,2.71-22.71,1.8-34-.43-5.36-3.58-10.5-5.77-16.46,1.6.69,3,1.2,4.33,1.88,29.23,15.1,54,35.33,71.5,63.52A118,118,0,0,1,576.27,302c-2.23,19.44-8.64,37.87-16.84,55.76-9.83,21.41-25,39.14-38.07,58.34-14.52,21.33-20.76,44.75-16.72,70.49C505.55,492.33,507.3,498,509,505Z" transform="translate(-269.32 -159)"/><path class="cls-6" d="M595.58,296.79c4.83,9.4,10.16,18.59,14.36,28.27,6.66,15.34,11.71,31.23,12.87,48.12,2.53,36.62-11.92,65.27-41.07,86.79-18,13.25-36.25,26-54.92,39.38-4.18-10.52-5.11-21.46-3.7-33,2.26-18.45,12.1-33.28,22-48.06,6-9,13.76-17,19.36-26.21a204.92,204.92,0,0,0,27.41-73.33c1.14-7,1.73-14.08,2.57-21.12Z" transform="translate(-269.32 -159)"/></g></svg>